<?xml version="1.0" encoding="iso-8859-1"?>
<!-- Uploaded to: SVG Repo, www.svgrepo.com, Generator: SVG Repo Mixer Tools -->
<svg height="800px" width="800px" version="1.1" id="Layer_1" xmlns="http://www.w3.org/2000/svg" xmlns:xlink="http://www.w3.org/1999/xlink" 
	 viewBox="0 0 506.684 506.684" xml:space="preserve">
<g transform="translate(0 -1004.36)">
	<g shape-rendering="auto" image-rendering="auto" color-rendering="auto" color-interpolation="sRGB">
		<path style="fill:#3B322E;" d="M221.331,1004.373c-3.27,0.007-6.207,2.004-7.417,5.042l-97.521,243.812
			c-1.446-3.966-3.227-7.797-5.854-11.125c-11.738-14.861-33.274-25.158-52.167-32.958c-18.893-7.801-35.292-12.459-35.292-12.459
			c-0.771-0.221-1.572-0.326-2.374-0.309c-3.478,0.087-6.502,2.411-7.479,5.751c0,0-4.903,16.617-8.687,37.208
			c-3.785,20.587-6.954,44.879-1.75,63.229c6.977,24.604,26.041,43.427,44.583,57.5c9.136,6.934,22.391,12.089,33.834,16.104
			c8.177,2.87,13.993,4.565,17.437,5.542c13.258,73.443,77.465,129.333,154.688,129.333c72.988,0,134.281-49.956,152-117.438
			c0.408-0.043,0.812-0.119,1.209-0.224c0,0,9.326-2.564,20.541-6.583c11.216-4.02,24.231-9.168,33.209-16.126
			c18.172-14.082,36.847-32.939,43.667-57.5c5.083-18.303,1.996-42.544-1.709-63.124c-3.705-20.581-8.5-37.208-8.5-37.208
			c-0.986-3.467-4.167-5.846-7.771-5.813l0,0c-0.799,0.006-1.592,0.132-2.354,0.373c0,0-15.625,4.981-33.875,12.938
			c-18.25,7.956-39.168,18.376-51.312,32.042c-2.539,2.857-4.43,6.174-6.021,9.583l-69.937-139.895l40.791,13.604
			c2.932,19.161,19.449,34.02,39.396,34.02c21.997,0,40-18.003,40-40c0-21.995-18.003-40-40-40c-5.316,0-10.369,1.094-15.021,3.001
			c-0.39-0.458-0.831-0.87-1.313-1.23l-106.667-85.333c-1.417-1.141-3.18-1.766-4.999-1.771h-53.333L221.331,1004.373z"/>
		<path style="fill:#2ECC71;" d="M226.747,1020.373h45.125l102.062,81.667c-4.563,4.736-7.863,10.603-9.666,17.104l-51.917-17.313
			l-19.855-39.688c-1.309-2.712-4.03-4.459-7.041-4.521c-4.418-0.088-8.071,3.422-8.159,7.84c-0.026,1.329,0.279,2.645,0.888,3.826
			l20.687,41.396c0.263,0.822,0.657,1.595,1.167,2.291l65.041,130.084c-28.527-28.815-68.065-46.688-111.749-46.688
			c-47.411,0-89.868,21.131-118.73,54.376L226.747,1020.373L226.747,1020.373z"/>
		<g>
			<path style="fill:#F8BDB0;" d="M253.331,1212.373c78.15,0,141.333,63.182,141.333,141.333
				c0,78.151-63.183,141.333-141.333,141.333c-78.151,0-141.333-63.182-141.333-141.333
				C111.997,1275.555,175.179,1212.373,253.331,1212.373z"/>
			<path style="fill:#F8BDB0;" d="M26.664,1214.894c5.078,1.543,11.911,3.367,25.604,9.021
				c17.949,7.411,38.097,18.469,45.708,28.104c2.473,3.132,5.591,13.212,6.979,21.938c1.039,7.031,1.666,14.737,2.271,21.521
				c-7.598,18.44-11.229,37.07-11.229,58.229c0,3.582,0.309,7.082,0.544,10.604c-3.083-0.96-6.134-1.885-10.021-3.249
				c-10.826-3.801-23.584-9.293-29.458-13.75c-17.196-13.051-33.45-29.992-38.875-49.125c-3.565-12.569-1.534-36.28,2.083-55.958
				c2.779-15.119,4.964-22.169,6.396-27.333L26.664,1214.894z"/>
			<path style="fill:#F8BDB0;" d="M480.31,1225.769c1.425,5.266,3.491,12.107,6.188,27.082c3.543,19.688,5.545,43.425,2.042,56.042
				c-5.326,19.177-21.235,36.063-38.063,49.105c-5.723,4.435-18.201,9.932-28.791,13.729c-4.957,1.776-9.342,3.184-12.791,4.25
				c1.035-7.299,1.771-14.688,1.771-22.271c0-21.128-3.883-40.327-11.459-58.745c1.027-5.688,2.658-11.259,3.836-15.714
				c2.022-6.525,5.453-14.089,7.355-16.228c8.4-9.453,28.316-20.398,45.749-28c13.024-5.678,19.12-7.536,24.167-9.25
				L480.31,1225.769z"/>
		</g>
		<path style="fill:#3B322E;" d="M253.341,1324.378c-21.997,0-40,18.003-40,40c0,21.997,18.003,40,40,40s40-18.003,40-40
			C293.341,1342.381,275.338,1324.378,253.341,1324.378z"/>
		<path style="fill:#F896B0;" d="M253.341,1340.378c13.35,0,24,10.651,24,24c0,13.349-10.651,24-24,24c-13.349,0-24-10.651-24-24
			C229.341,1351.029,239.992,1340.378,253.341,1340.378z"/>
		<g>
			<path style="fill:#3B322E;" d="M296.154,1281.712c-4.418-0.063-8.051,3.469-8.113,7.887s3.469,8.051,7.887,8.113
				c0.075,0.001,0.151,0.001,0.226,0h10.375c4.418,0.063,8.051-3.469,8.113-7.887c0.063-4.418-3.469-8.051-7.887-8.113
				c-0.075-0.001-0.151-0.001-0.226,0H296.154z"/>
			<path style="fill:#3B322E;" d="M328.029,1399.066c-2.925-0.016-5.625,1.568-7.042,4.126
				c-13.546,23.641-39.377,38.464-67.563,38.521c-28.186,0.107-54.101-14.664-67.75-38.251c-2.194-3.839-7.083-5.172-10.921-2.978
				c-3.838,2.194-5.171,7.083-2.978,10.922c0.015,0.025,0.03,0.051,0.045,0.077c16.594,28.676,47.854,46.298,81.625,46.229
				c33.771-0.107,64.947-17.819,81.417-46.564c2.255-3.799,1.002-8.708-2.798-10.964c-1.222-0.725-2.615-1.112-4.035-1.12V1399.066z
				"/>
			<g>
				<path style="fill:#3B322E;" d="M200.154,1281.712c-4.418-0.063-8.051,3.469-8.113,7.887c-0.062,4.418,3.469,8.051,7.887,8.113
					c0.075,0.001,0.151,0.001,0.226,0h10.375c4.418,0.063,8.051-3.469,8.113-7.887c0.062-4.418-3.469-8.051-7.887-8.113
					c-0.075-0.001-0.151-0.001-0.226,0H200.154z"/>
				<path style="fill:#3B322E;" d="M445.404,1292.399c-1.8-0.021-3.554,0.566-4.979,1.667l-42.438,31.813
					c-3.553,2.633-4.299,7.647-1.666,11.199c2.633,3.553,7.647,4.298,11.199,1.667c0.024-0.018,0.047-0.035,0.071-0.053
					l42.438-31.833c3.567-2.608,4.344-7.615,1.735-11.181C450.278,1293.644,447.922,1292.43,445.404,1292.399z"/>
			</g>
		</g>
	</g>
	<path style="fill:#FCD116;" d="M426.674,1129.706c0,13.255-10.745,24-24,24l0,0c-13.255,0-24-10.745-24-24l0,0
		c0-13.255,10.745-24,24-24l0,0C415.929,1105.706,426.674,1116.452,426.674,1129.706L426.674,1129.706z"/>
	<g shape-rendering="auto" image-rendering="auto" color-rendering="auto" color-interpolation="sRGB">
		<g>
			<path style="fill:#31AF66;" d="M258.539,1020.373l102.062,81.667c-3.602,3.738-6.379,8.201-8.291,13.104l11.958,4
				c1.803-6.501,5.103-12.368,9.666-17.104l-102.062-81.667H258.539z"/>
			<path style="fill:#31AF66;" d="M271.58,1057.623c-5.823,0.277-9.406,6.488-6.729,11.666
				c25.731,51.641,51.51,102.989,77.354,154.667c8.214,5.647,15.883,12.042,22.875,19.105
				c-29.046-57.965-57.981-115.913-86.895-173.771c-1.32-2.57-1.153-5.65,0.437-8.062c-1.443-2.196-3.873-3.544-6.5-3.604
				c-0.181-0.006-0.363-0.006-0.544,0L271.58,1057.623z"/>
		</g>
		<path style="fill:#D6B31E;" d="M402.664,1105.706c-2.339,0-4.539,0.427-6.667,1.046c10.03,2.876,17.333,11.947,17.333,22.958
			c0,11.012-7.303,20.082-17.333,22.959c2.125,0.608,4.332,1.046,6.667,1.046c13.349,0,24-10.65,24-24c0-13.35-10.651-24-24-24
			V1105.706z"/>
		<path style="fill:#31AF66;" d="M239.997,1196.373c-36.779,0-70.489,12.819-97.271,34.042l-8.125,20.333
			c27.546-31.728,67.534-52.199,112.334-54.021c-2.319-0.107-4.595-0.352-6.938-0.352V1196.373z"/>
		<g>
			<path style="fill:#D2A399;" d="M253.331,1212.373c-2.253,0-4.441,0.234-6.667,0.331c75.021,3.497,134.667,65.1,134.667,141
				s-59.646,137.501-134.667,141c2.226,0.107,4.414,0.331,6.667,0.331c78.15,0,141.333-63.182,141.333-141.333
				c0-78.151-63.183-141.333-141.333-141.333V1212.373z"/>
			<path style="fill:#D2A399;" d="M26.664,1214.894c-0.288,1.035-0.736,2.745-1.084,3.979c3.691,1.282,7.655,2.689,13.355,5.042
				c17.949,7.411,38.097,18.469,45.708,28.104c2.473,3.132,5.591,13.212,6.979,21.938c1.049,6.984,1.662,14.775,2.229,21.479
				c-7.598,18.44-11.187,37.112-11.187,58.271c0,2.005,0.181,3.965,0.309,5.938c1.189,0.438,2.385,1.013,3.541,1.418
				c3.887,1.363,6.939,2.289,10.021,3.249c-0.235-3.522-0.544-7.022-0.544-10.604c0-21.159,3.589-39.413,11.187-57.854
				c-0.18-2.293-0.464-4.421-0.521-5.792c0,0-0.32-7.379-1.709-16.104c-1.388-8.725-4.507-18.805-6.979-21.938
				c-7.611-9.637-27.759-20.693-45.708-28.104c-13.693-5.654-20.526-7.478-25.604-9.021H26.664z"/>
			<path style="fill:#D2A399;" d="M480.31,1225.769c-3.04,1.035-7.083,2.456-12.167,4.396c1.33,4.892,2.924,11.039,5.022,22.688
				c3.542,19.688,5.545,43.424,2.042,56.042c-5.326,19.177-21.235,36.063-38.063,49.105c-5.532,4.286-17.358,9.514-27.709,13.29
				c-0.192,1.561-0.32,3.135-0.544,4.688c3.45-1.066,7.835-2.474,12.791-4.25c10.591-3.797,23.069-9.294,28.791-13.729
				c16.828-13.043,32.737-29.928,38.063-49.105c3.503-12.616,1.502-36.354-2.042-56.042c-2.698-14.977-4.763-21.818-6.188-27.082
				H480.31z"/>
		</g>
		<path style="fill:#3B322E;" d="M61.029,1281.732c-4.415,0.188-7.842,3.918-7.655,8.332c0.103,2.435,1.311,4.69,3.28,6.126
			l42.438,31.833c3.524,2.672,8.546,1.98,11.217-1.543c2.671-3.523,1.981-8.546-1.543-11.217c-0.023-0.017-0.047-0.035-0.07-0.052
			l-42.438-31.813C64.766,1282.244,62.914,1281.654,61.029,1281.732z"/>
	</g>
</g>
</svg>